# xmcd
#
# Track frame offsets:
#	187
#	11425
#	23637
#	46665
#	67650
#	93385
#	119220
#	145000
#	167072
#	186617
#	213665
#	228287
#	255710
#	282097
#
# Disc length: 4230 seconds
#
# Revision: 1
# Processed by: cddbd v1.4PL0 Copyright (c) Steve Scherf et al.
# Submitted via: EasyCDDAExtractor 5.0.7
#
DISCID=bf10840e
DTITLE=Various Artist - Chi Minh Anh
DYEAR=1900
DGENRE=
TTITLE0=Khanh Ly - Loi gioi thieu
TTITLE1=Thu Thuy - Nu hon dau
TTITLE2=Nhu Mai - dau chan dia dang
TTITLE3=Thu Thuy - Em khong hieu gi
TTITLE4=Nhu Mai - Con thuyen khong ben
TTITLE5=Thy Van - Ngoai o den vang
TTITLE6=Thu Thuy - It's only you
TTITLE7=Thu Thuy - Gonna lose my heart
TTITLE8=Phuong Loan - Nguoi yeu dau
TTITLE9=Ngoc Lan - Cuoc tinh xua
TTITLE10=Thu Thuy - Tinh yeu tuyet voi
TTITLE11=Thu Thuy - Chuyen phim buon
TTITLE12=Ngoc Lan - Hoi nguoi con nho den ta
TTITLE13=Thu Thuy - I feel your love
EXTD=
EXTT0=
EXTT1=
EXTT2=
EXTT3=
EXTT4=
EXTT5=
EXTT6=
EXTT7=
EXTT8=
EXTT9=
EXTT10=
EXTT11=
EXTT12=
EXTT13=
PLAYORDER=
